<mxfile host="app.diagrams.net" modified="2023-11-27T13:23:22.689Z" agent="Mozilla/5.0 (Windows NT 10.0; Win64; x64; rv:120.0) Gecko/20100101 Firefox/120.0" etag="SViQpJHDo03_n4K3Ax5i" version="22.0.0" type="device">
  <diagram name="Page-1" id="BVm9Y2kgPQZ3tiSBH766">
    <mxGraphModel dx="1372" dy="794" grid="1" gridSize="10" guides="1" tooltips="1" connect="1" arrows="1" fold="1" page="1" pageScale="1" pageWidth="850" pageHeight="1100" math="0" shadow="0">
      <root>
        <mxCell id="0" />
        <mxCell id="1" parent="0" />
        <mxCell id="E1fDngXjY23AGC0p5FTO-5" value="Azure management groups" style="whiteSpace=wrap;html=1;verticalAlign=top;" vertex="1" parent="1">
          <mxGeometry x="10" y="10" width="830" height="1080" as="geometry" />
        </mxCell>
        <mxCell id="E1fDngXjY23AGC0p5FTO-8" value="" style="edgeStyle=orthogonalEdgeStyle;rounded=0;orthogonalLoop=1;jettySize=auto;html=1;exitX=0.5;exitY=1;exitDx=0;exitDy=0;" edge="1" parent="1" source="E1fDngXjY23AGC0p5FTO-6" target="E1fDngXjY23AGC0p5FTO-7">
          <mxGeometry relative="1" as="geometry" />
        </mxCell>
        <mxCell id="E1fDngXjY23AGC0p5FTO-16" style="edgeStyle=orthogonalEdgeStyle;rounded=0;orthogonalLoop=1;jettySize=auto;html=1;exitX=0.5;exitY=1;exitDx=0;exitDy=0;entryX=0.5;entryY=0;entryDx=0;entryDy=0;" edge="1" parent="1" source="E1fDngXjY23AGC0p5FTO-6" target="E1fDngXjY23AGC0p5FTO-15">
          <mxGeometry relative="1" as="geometry" />
        </mxCell>
        <mxCell id="E1fDngXjY23AGC0p5FTO-6" value="Root" style="whiteSpace=wrap;html=1;" vertex="1" parent="1">
          <mxGeometry x="400" y="40" width="50" height="30" as="geometry" />
        </mxCell>
        <mxCell id="E1fDngXjY23AGC0p5FTO-18" value="" style="edgeStyle=orthogonalEdgeStyle;rounded=0;orthogonalLoop=1;jettySize=auto;html=1;" edge="1" parent="1" source="E1fDngXjY23AGC0p5FTO-7" target="E1fDngXjY23AGC0p5FTO-17">
          <mxGeometry relative="1" as="geometry" />
        </mxCell>
        <mxCell id="E1fDngXjY23AGC0p5FTO-7" value="Root" style="whiteSpace=wrap;html=1;" vertex="1" parent="1">
          <mxGeometry x="290" y="160" width="50" height="30" as="geometry" />
        </mxCell>
        <mxCell id="E1fDngXjY23AGC0p5FTO-15" value="Root" style="whiteSpace=wrap;html=1;" vertex="1" parent="1">
          <mxGeometry x="510" y="160" width="50" height="30" as="geometry" />
        </mxCell>
        <mxCell id="E1fDngXjY23AGC0p5FTO-22" value="" style="edgeStyle=orthogonalEdgeStyle;rounded=0;orthogonalLoop=1;jettySize=auto;html=1;" edge="1" parent="1" source="E1fDngXjY23AGC0p5FTO-17" target="E1fDngXjY23AGC0p5FTO-21">
          <mxGeometry relative="1" as="geometry" />
        </mxCell>
        <mxCell id="E1fDngXjY23AGC0p5FTO-17" value="" style="whiteSpace=wrap;html=1;" vertex="1" parent="1">
          <mxGeometry x="255" y="255" width="120" height="60" as="geometry" />
        </mxCell>
        <mxCell id="E1fDngXjY23AGC0p5FTO-21" value="Azure Subscription" style="whiteSpace=wrap;html=1;verticalAlign=top;" vertex="1" parent="1">
          <mxGeometry x="35" y="400" width="560" height="590" as="geometry" />
        </mxCell>
        <mxCell id="E1fDngXjY23AGC0p5FTO-23" value="Azure Resource Group" style="rounded=0;whiteSpace=wrap;html=1;verticalAlign=top;" vertex="1" parent="1">
          <mxGeometry x="75" y="460" width="480" height="180" as="geometry" />
        </mxCell>
        <mxCell id="E1fDngXjY23AGC0p5FTO-24" value="Azure Resource Group" style="rounded=0;whiteSpace=wrap;html=1;verticalAlign=top;" vertex="1" parent="1">
          <mxGeometry x="75" y="650" width="480" height="180" as="geometry" />
        </mxCell>
        <mxCell id="E1fDngXjY23AGC0p5FTO-25" value="" style="rounded=0;whiteSpace=wrap;html=1;" vertex="1" parent="1">
          <mxGeometry x="135" y="530" width="120" height="60" as="geometry" />
        </mxCell>
        <mxCell id="E1fDngXjY23AGC0p5FTO-27" value="" style="rounded=0;whiteSpace=wrap;html=1;" vertex="1" parent="1">
          <mxGeometry x="280" y="500" width="120" height="60" as="geometry" />
        </mxCell>
        <mxCell id="E1fDngXjY23AGC0p5FTO-28" value="" style="rounded=0;whiteSpace=wrap;html=1;" vertex="1" parent="1">
          <mxGeometry x="350" y="570" width="120" height="60" as="geometry" />
        </mxCell>
        <mxCell id="E1fDngXjY23AGC0p5FTO-29" value="" style="rounded=0;whiteSpace=wrap;html=1;" vertex="1" parent="1">
          <mxGeometry x="255" y="680" width="120" height="60" as="geometry" />
        </mxCell>
        <mxCell id="E1fDngXjY23AGC0p5FTO-30" value="" style="rounded=0;whiteSpace=wrap;html=1;" vertex="1" parent="1">
          <mxGeometry x="150" y="750" width="120" height="60" as="geometry" />
        </mxCell>
        <mxCell id="E1fDngXjY23AGC0p5FTO-31" value="" style="rounded=0;whiteSpace=wrap;html=1;" vertex="1" parent="1">
          <mxGeometry x="390" y="730" width="120" height="60" as="geometry" />
        </mxCell>
      </root>
    </mxGraphModel>
  </diagram>
</mxfile>
